<svg width="417" height="403" viewBox="0 0 417 403" fill="none" xmlns="http://www.w3.org/2000/svg">
<g filter="url(#filter0_b_3_5)">
<rect x="0.1875" y="0.374756" width="416.812" height="416.812" rx="17.1" fill="white" fill-opacity="0.95"/>
<g clip-path="url(#clip0_3_5)">
<g clip-path="url(#clip1_3_5)">
<path d="M300.415 174.533C300.415 174.533 291.624 105.747 239.759 155.201C173.272 218.593 128.581 92.599 79.2591 144.029C52.3136 172.124 123.517 234.96 75.9631 268.028C28.4094 301.096 67.2694 325.852 67.2694 325.852L337.291 325.852C337.291 325.852 365.244 327.871 367.361 292.5C369.473 257.129 336.979 256.7 357.146 212.437C377.313 168.173 306.752 202.706 300.415 174.533Z" fill="#F5FBFF"/>
<g opacity="0.3">
<path d="M143.276 237.361C143.276 235.545 141.804 234.024 139.939 234.024C139.595 234.024 139.203 234.073 138.908 234.171" stroke="#A4B6C6" stroke-width="1.40273" stroke-miterlimit="10" stroke-linecap="round" stroke-linejoin="round"/>
<path d="M121.143 237.655L115.255 237.655" stroke="#A4B6C6" stroke-width="1.40273" stroke-miterlimit="10" stroke-linecap="round" stroke-linejoin="round"/>
<path d="M131.056 235.398C129.781 235.398 128.799 236.428 128.799 237.655L123.843 237.655" stroke="#A4B6C6" stroke-width="1.40273" stroke-miterlimit="10" stroke-linecap="round" stroke-linejoin="round"/>
<path d="M138.859 234.171C138.368 232.6 136.847 231.423 135.129 231.423C132.97 231.423 131.204 233.189 131.204 235.349" stroke="#A4B6C6" stroke-width="1.40273" stroke-miterlimit="10" stroke-linecap="round" stroke-linejoin="round"/>
</g>
<g opacity="0.3">
<path d="M160.79 267.13L164.863 267.13L164.863 266.885C164.863 264.775 166.581 263.057 168.691 263.057C169.673 263.057 170.556 263.45 171.243 264.038L171.243 263.989C172.274 260.849 175.218 258.542 178.702 258.542C183.021 258.542 186.554 262.076 186.554 266.394C186.554 266.787 186.505 267.228 186.456 267.621L186.554 267.719L188.664 267.719" stroke="#A4B6C6" stroke-width="1.40273" stroke-miterlimit="10" stroke-linecap="round" stroke-linejoin="round"/>
</g>
<g opacity="0.3">
<path d="M284.231 250.58C284.231 246.655 287.421 243.465 291.347 243.465C292.132 243.465 292.868 243.612 293.604 243.808" stroke="#A4B6C6" stroke-width="1.40273" stroke-miterlimit="10" stroke-linecap="round" stroke-linejoin="round"/>
<path d="M331.685 251.317L344.247 251.317" stroke="#A4B6C6" stroke-width="1.40273" stroke-miterlimit="10" stroke-linecap="round" stroke-linejoin="round"/>
<path d="M310.436 246.409C313.135 246.409 315.295 248.569 315.295 251.268L325.894 251.268" stroke="#A4B6C6" stroke-width="1.40273" stroke-miterlimit="10" stroke-linecap="round" stroke-linejoin="round"/>
<path d="M293.653 243.808C294.733 240.422 297.922 237.969 301.701 237.969C306.363 237.969 310.142 241.747 310.142 246.409" stroke="#A4B6C6" stroke-width="1.40273" stroke-miterlimit="10" stroke-linecap="round" stroke-linejoin="round"/>
</g>
<g opacity="0.3">
<path d="M332.616 275.902L328.74 275.902L328.74 275.657C328.74 273.645 327.12 272.026 325.108 272.026C324.176 272.026 323.342 272.369 322.655 272.958L322.655 272.909C321.673 269.916 318.876 267.707 315.49 267.707C311.368 267.707 307.982 271.044 307.982 275.215C307.982 275.608 308.031 276.001 308.08 276.393L307.982 276.491L305.97 276.491" stroke="#A4B6C6" stroke-width="1.40273" stroke-miterlimit="10" stroke-linecap="round" stroke-linejoin="round"/>
</g>
<path d="M66.9268 325.432L324.226 325.432" stroke="#A4B6C6" stroke-width="1.87031" stroke-miterlimit="10"/>
<path d="M333.237 325.432L365.036 325.432" stroke="#A4B6C6" stroke-width="1.87031" stroke-miterlimit="10"/>
<g opacity="0.3">
<path d="M284.183 203.317C284.183 208.976 279.607 213.552 273.899 213.552C273.801 213.552 272.964 213.552 266.814 213.552C262.533 213.552 255.693 213.552 244.769 213.552L239.553 213.552C232.714 213.699 227.252 208.237 227.252 201.644C227.252 195.001 232.763 189.49 239.701 189.834C245.655 171.234 272.915 173.842 275.228 193.082C280.345 193.722 284.183 198.052 284.183 203.317Z" fill="white" stroke="#A4B6C6" stroke-width="1.87031" stroke-miterlimit="10"/>
<path d="M275.081 193.131C274.687 193.082 274.293 193.082 273.9 193.082C271.882 193.082 269.963 193.672 268.339 194.706" fill="white"/>
<path d="M275.081 193.131C274.687 193.082 274.293 193.082 273.9 193.082C271.882 193.082 269.963 193.672 268.339 194.706" stroke="#A4B6C6" stroke-width="1.87031" stroke-miterlimit="10" stroke-linecap="round"/>
<path d="M239.701 189.834C239.111 191.606 238.815 193.475 238.815 195.444C238.815 196.231 238.865 196.969 238.963 197.707" fill="white"/>
<path d="M239.701 189.834C239.111 191.606 238.815 193.475 238.815 195.444C238.815 196.231 238.865 196.969 238.963 197.707" stroke="#A4B6C6" stroke-width="1.87031" stroke-miterlimit="10" stroke-linecap="round" stroke-linejoin="round"/>
</g>
<g opacity="0.3">
<path d="M119.06 277.592C119.06 280.501 116.707 282.855 113.772 282.855C113.721 282.855 113.291 282.855 110.128 282.855C107.927 282.855 104.409 282.855 98.7921 282.855L96.1099 282.855C92.5927 282.931 89.7841 280.122 89.7841 276.731C89.7841 273.315 92.618 270.481 96.1858 270.658C99.2475 261.094 113.266 262.435 114.455 272.328C117.086 272.657 119.06 274.884 119.06 277.592Z" fill="white" stroke="#A4B6C6" stroke-width="1.87031" stroke-miterlimit="10"/>
<path d="M114.379 272.354C114.176 272.328 113.974 272.328 113.772 272.328C112.734 272.328 111.747 272.632 110.912 273.164" fill="white"/>
<path d="M114.379 272.354C114.176 272.328 113.974 272.328 113.772 272.328C112.734 272.328 111.747 272.632 110.912 273.164" stroke="#A4B6C6" stroke-width="1.87031" stroke-miterlimit="10" stroke-linecap="round"/>
<path d="M96.1859 270.658C95.8823 271.569 95.7305 272.531 95.7305 273.543C95.7305 273.948 95.7558 274.327 95.8064 274.707" fill="white"/>
<path d="M96.1859 270.658C95.8823 271.569 95.7305 272.531 95.7305 273.543C95.7305 273.948 95.7558 274.327 95.8064 274.707" stroke="#A4B6C6" stroke-width="1.87031" stroke-miterlimit="10" stroke-linecap="round" stroke-linejoin="round"/>
</g>
<g opacity="0.3">
<path d="M198.548 239.25C198.548 242.16 196.195 244.513 193.26 244.513C193.209 244.513 192.779 244.513 189.616 244.513C187.415 244.513 183.898 244.513 178.28 244.513L175.598 244.513C172.081 244.589 169.272 241.781 169.272 238.39C169.272 234.974 172.106 232.14 175.674 232.317C178.736 222.752 192.754 224.094 193.943 233.987C196.575 234.316 198.548 236.543 198.548 239.25Z" fill="white" stroke="#A4B6C6" stroke-width="1.87031" stroke-miterlimit="10"/>
<path d="M193.867 234.012C193.665 233.987 193.462 233.987 193.26 233.987C192.222 233.987 191.236 234.291 190.401 234.822" fill="white"/>
<path d="M193.867 234.012C193.665 233.987 193.462 233.987 193.26 233.987C192.222 233.987 191.236 234.291 190.401 234.822" stroke="#A4B6C6" stroke-width="1.87031" stroke-miterlimit="10" stroke-linecap="round"/>
<path d="M175.674 232.317C175.371 233.228 175.219 234.19 175.219 235.202C175.219 235.607 175.244 235.986 175.295 236.366" fill="white"/>
<path d="M175.674 232.317C175.371 233.228 175.219 234.19 175.219 235.202C175.219 235.607 175.244 235.986 175.295 236.366" stroke="#A4B6C6" stroke-width="1.87031" stroke-miterlimit="10" stroke-linecap="round" stroke-linejoin="round"/>
</g>
</g>
<path d="M177.96 193.598C184.144 187.414 184.144 177.387 177.96 171.203C171.775 165.018 161.748 165.018 155.564 171.203C149.379 177.387 149.379 187.414 155.564 193.598C161.748 199.783 171.775 199.783 177.96 193.598Z" fill="#FFB52E" stroke="#4D6173" stroke-width="1.40273" stroke-miterlimit="10"/>
<path d="M170.081 197.901C163.746 192.157 157.089 185.501 151.292 179.112C153.869 166.926 169.061 162.256 178.026 171.167C186.883 180.079 182.267 195.324 170.081 197.901Z" fill="#F5FBFF"/>
<g filter="url(#filter1_d_3_5)">
<path d="M157.197 169.772C146.245 160.055 137.549 154.257 135.831 155.975C134.06 157.747 140.555 167.356 151.238 179.112C168.846 198.599 190.373 216.153 193.218 213.308C196.17 210.356 177.059 187.326 157.197 169.772ZM174.268 196.344C155.103 181.796 138.891 157.532 156.284 170.469C168.524 179.542 184.306 197.848 182.052 200.102C181.247 200.907 178.294 199.404 174.268 196.344Z" fill="white"/>
<path d="M157.197 169.772C146.245 160.055 137.549 154.257 135.831 155.975C134.06 157.747 140.555 167.356 151.238 179.112C168.846 198.599 190.373 216.153 193.218 213.308C196.17 210.356 177.059 187.326 157.197 169.772ZM174.268 196.344C155.103 181.796 138.891 157.532 156.284 170.469C168.524 179.542 184.306 197.848 182.052 200.102C181.247 200.907 178.294 199.404 174.268 196.344Z" stroke="#4D6173" stroke-width="1.40273" stroke-miterlimit="10"/>
</g>
<path d="M174.268 196.344C167.236 191.03 158.109 181.904 152.795 174.871C157.68 165.745 170.295 163.491 177.972 171.167C185.595 178.79 183.448 191.406 174.268 196.344Z" fill="#FFB52E" stroke="#4D6173" stroke-width="1.40273" stroke-miterlimit="10"/>
<path d="M177.863 192.711C176.735 193.785 175.622 194.817 174.334 195.515C167.302 190.201 158.952 181.845 153.638 174.813C154.282 173.578 154.627 173.114 155.647 172.04C154.52 176.442 175.117 194.867 177.863 192.711Z" fill="white"/>
<path opacity="0.3" d="M177.596 187.218C178.812 187.218 179.797 185.608 179.797 183.622C179.797 181.635 178.812 180.025 177.596 180.025C176.38 180.025 175.395 181.635 175.395 183.622C175.395 185.608 176.38 187.218 177.596 187.218Z" fill="white"/>
<path opacity="0.3" d="M172.12 176.321C173.099 176.321 173.892 175.359 173.892 174.173C173.892 172.988 173.099 172.026 172.12 172.026C171.142 172.026 170.349 172.988 170.349 174.173C170.349 175.359 171.142 176.321 172.12 176.321Z" fill="white"/>
<path opacity="0.3" d="M161.208 174.642C162.115 174.496 162.755 173.783 162.636 173.052C162.518 172.32 161.686 171.846 160.779 171.993C159.872 172.14 159.232 172.852 159.351 173.584C159.469 174.315 160.301 174.789 161.208 174.642Z" fill="white"/>
<path opacity="0.3" d="M167.099 180.592C168.563 180.355 169.587 179.166 169.388 177.937C169.189 176.708 167.842 175.904 166.379 176.14C164.915 176.377 163.89 177.566 164.089 178.795C164.288 180.024 165.636 180.828 167.099 180.592Z" fill="white"/>
<rect x="189.553" y="328.442" width="41.9465" height="4.76665" rx="2.38332" transform="rotate(-90 189.553 328.442)" fill="white" stroke="#4D6173" stroke-width="1.87031"/>
<rect x="212.672" y="328.812" width="46.7405" height="4.76665" rx="2.38332" transform="rotate(-118.753 212.672 328.812)" fill="white" stroke="#4D6173" stroke-width="1.87031"/>
<rect width="46.7405" height="4.76665" rx="2.38332" transform="matrix(0.481036 -0.876701 -0.876701 -0.481036 171.17 328.812)" fill="white" stroke="#4D6173" stroke-width="1.87031"/>
<rect x="181.291" y="288.468" width="21.291" height="6.99108" rx="3.49554" fill="white" stroke="#4D6173" stroke-width="1.87031"/>
<rect x="188.301" y="288.444" width="8.89774" height="6.99108" transform="rotate(-90 188.301 288.444)" fill="white" stroke="#4D6173" stroke-width="1.87031"/>
<rect x="188.978" y="282.783" width="10.5051" height="6.99108" transform="rotate(-106.884 188.978 282.783)" fill="white" stroke="#4D6173" stroke-width="1.87031"/>
<ellipse cx="191.796" cy="279.864" rx="4.13109" ry="4.13109" fill="white" stroke="#4D6173" stroke-width="1.87031"/>
<rect x="174.981" y="273.577" width="27.2014" height="6.33038" transform="rotate(163.119 174.981 273.577)" fill="#1B91FB" stroke="#4D6173" stroke-width="1.87031"/>
<path d="M187.208 268.889C187.658 270.371 186.821 271.938 185.338 272.388L175.98 275.228C174.497 275.678 172.93 274.841 172.48 273.358L171.204 269.152C170.754 267.67 171.591 266.103 173.074 265.653L182.432 262.813C183.915 262.363 185.482 263.2 185.931 264.683L187.208 268.889Z" fill="white" stroke="#4D6173" stroke-width="1.87031"/>
<rect x="201.39" y="269.471" width="25.0562" height="15.3154" rx="3.74062" transform="rotate(163.119 201.39 269.471)" fill="white" stroke="#4D6173" stroke-width="1.87031"/>
<ellipse cx="224.476" cy="254.677" rx="9.34311" ry="9.34311" transform="rotate(163.119 224.476 254.677)" fill="#FFB52E" stroke="#4D6173" stroke-width="1.87031"/>
<path opacity="0.3" d="M230.492 251.189C230.818 250.654 230.374 249.789 229.5 249.256C228.626 248.723 227.654 248.725 227.328 249.259C227.002 249.794 227.446 250.659 228.32 251.192C229.193 251.725 230.166 251.723 230.492 251.189Z" fill="white"/>
<path d="M229.183 261.726C229.813 263.803 228.549 265.979 226.433 266.46L204.054 271.551C201.182 272.204 198.295 270.527 197.44 267.709L194.89 259.308C194.035 256.49 195.504 253.491 198.254 252.438L219.688 244.233C221.715 243.457 223.974 244.563 224.605 246.64L229.183 261.726Z" fill="white" stroke="#4D6173" stroke-width="1.87031"/>
<rect x="151.092" y="283.708" width="4.90094" height="11.6397" rx="2.45047" transform="rotate(163.119 151.092 283.708)" fill="white" stroke="#4D6173" stroke-width="1.87031"/>
<path d="M188.587 317.842C188.761 317.571 188.259 316.919 187.39 316.21C187.268 316.112 187.184 315.975 187.151 315.822C187.118 315.67 187.138 315.51 187.208 315.37C187.706 314.366 187.893 313.564 187.622 313.39C187.352 313.216 186.699 313.718 185.991 314.587C185.893 314.708 185.756 314.792 185.603 314.826C185.45 314.859 185.291 314.839 185.151 314.769C184.147 314.271 183.345 314.083 183.171 314.354C182.996 314.625 183.499 315.277 184.368 315.985C184.489 316.084 184.573 316.221 184.606 316.373C184.639 316.526 184.619 316.686 184.55 316.825C184.052 317.83 183.864 318.632 184.135 318.806C184.406 318.98 185.058 318.478 185.766 317.609C185.865 317.487 186.001 317.403 186.154 317.37C186.307 317.337 186.466 317.357 186.606 317.427C187.611 317.925 188.412 318.112 188.587 317.842ZM240.372 279.456C240.546 279.185 240.044 278.533 239.175 277.824C239.053 277.726 238.969 277.589 238.936 277.436C238.903 277.284 238.923 277.124 238.993 276.984C239.491 275.98 239.678 275.178 239.407 275.004C239.137 274.83 238.484 275.332 237.776 276.201C237.678 276.322 237.541 276.407 237.388 276.44C237.235 276.473 237.076 276.453 236.936 276.383C235.932 275.885 235.13 275.697 234.956 275.968C234.781 276.239 235.284 276.891 236.153 277.599C236.274 277.698 236.358 277.835 236.391 277.987C236.424 278.14 236.404 278.3 236.335 278.439C235.837 279.444 235.649 280.246 235.92 280.42C236.191 280.594 236.843 280.092 237.551 279.223C237.65 279.101 237.786 279.017 237.939 278.984C238.092 278.951 238.251 278.971 238.391 279.041C239.396 279.539 240.197 279.726 240.372 279.456ZM128.499 197.355C128.673 197.085 128.171 196.432 127.302 195.724C127.181 195.626 127.096 195.489 127.063 195.336C127.03 195.183 127.05 195.024 127.12 194.884C127.618 193.88 127.805 193.078 127.535 192.904C127.264 192.729 126.612 193.232 125.904 194.101C125.805 194.222 125.668 194.306 125.516 194.339C125.363 194.372 125.203 194.352 125.064 194.283C124.059 193.785 123.257 193.597 123.083 193.868C122.909 194.139 123.411 194.791 124.28 195.499C124.402 195.598 124.486 195.734 124.519 195.887C124.552 196.04 124.532 196.199 124.462 196.339C123.964 197.344 123.777 198.145 124.047 198.32C124.318 198.494 124.97 197.992 125.679 197.123C125.777 197.001 125.914 196.917 126.067 196.884C126.219 196.851 126.379 196.871 126.519 196.941C127.523 197.439 128.325 197.626 128.499 197.355Z" fill="#A4B6C6"/>
<path d="M197.65 301.297C198.115 301.597 198.735 301.462 199.034 300.998C199.334 300.533 199.199 299.913 198.734 299.613C198.27 299.314 197.65 299.448 197.35 299.913C197.051 300.378 197.185 300.998 197.65 301.297Z" fill="#A4B6C6"/>
<path d="M199.253 209.499C199.718 209.798 200.337 209.664 200.637 209.199C200.936 208.734 200.802 208.114 200.337 207.815C199.872 207.515 199.252 207.65 198.953 208.115C198.654 208.58 198.788 209.199 199.253 209.499Z" fill="#A4B6C6"/>
<path d="M190.913 191.433C191.683 191.929 192.71 191.707 193.207 190.936C193.703 190.165 193.48 189.138 192.71 188.642C191.939 188.146 190.912 188.368 190.416 189.139C189.919 189.91 190.142 190.937 190.913 191.433Z" fill="#A4B6C6"/>
<path d="M125.406 218.851C126.177 219.347 127.204 219.124 127.7 218.354C128.196 217.583 127.974 216.556 127.203 216.06C126.432 215.564 125.405 215.786 124.909 216.557C124.413 217.327 124.635 218.354 125.406 218.851Z" fill="#A4B6C6"/>
<path d="M178.663 297.122C179.433 297.619 180.46 297.396 180.957 296.626C181.453 295.855 181.23 294.828 180.46 294.332C179.689 293.835 178.662 294.058 178.166 294.828C177.669 295.599 177.892 296.626 178.663 297.122Z" fill="#A4B6C6"/>
<path d="M190.37 226.661C190.597 226.888 191.341 226.534 192.217 225.834C192.338 225.736 192.49 225.683 192.646 225.683C192.802 225.683 192.954 225.736 193.076 225.833C193.953 226.532 194.697 226.884 194.924 226.657C195.152 226.429 194.798 225.685 194.098 224.81C194 224.688 193.947 224.536 193.947 224.38C193.947 224.224 194 224.072 194.097 223.95C194.796 223.073 195.148 222.329 194.92 222.102C194.693 221.874 193.949 222.228 193.074 222.928C192.952 223.026 192.8 223.079 192.644 223.079C192.488 223.079 192.336 223.026 192.214 222.929C191.337 222.23 190.593 221.878 190.366 222.106C190.138 222.333 190.492 223.077 191.192 223.953C191.29 224.074 191.343 224.226 191.343 224.382C191.343 224.538 191.29 224.69 191.193 224.812C190.494 225.689 190.142 226.433 190.37 226.661ZM216.975 285.375C217.202 285.602 217.946 285.248 218.822 284.548C218.943 284.45 219.095 284.397 219.251 284.397C219.408 284.397 219.559 284.45 219.681 284.547C220.558 285.246 221.302 285.598 221.53 285.371C221.757 285.143 221.404 284.399 220.703 283.524C220.605 283.402 220.552 283.25 220.552 283.094C220.552 282.938 220.605 282.786 220.703 282.664C221.401 281.787 221.753 281.043 221.526 280.816C221.298 280.588 220.554 280.942 219.679 281.642C219.557 281.74 219.405 281.793 219.249 281.793C219.093 281.793 218.941 281.74 218.819 281.643C217.942 280.944 217.198 280.592 216.971 280.82C216.743 281.047 217.097 281.791 217.797 282.667C217.895 282.788 217.948 282.94 217.948 283.096C217.949 283.252 217.895 283.404 217.798 283.526C217.099 284.403 216.747 285.147 216.975 285.375ZM320.816 193.326C321.044 193.553 321.787 193.2 322.663 192.5C322.785 192.402 322.936 192.348 323.092 192.348C323.249 192.348 323.4 192.401 323.522 192.499C324.399 193.198 325.143 193.55 325.371 193.322C325.598 193.094 325.245 192.351 324.544 191.475C324.447 191.353 324.393 191.202 324.393 191.045C324.393 190.889 324.446 190.738 324.544 190.616C325.242 189.739 325.595 188.995 325.367 188.767C325.139 188.54 324.395 188.893 323.52 189.593C323.398 189.691 323.246 189.745 323.09 189.745C322.934 189.745 322.782 189.692 322.66 189.594C321.783 188.895 321.039 188.543 320.812 188.771C320.584 188.999 320.938 189.743 321.638 190.618C321.736 190.74 321.789 190.891 321.79 191.048C321.79 191.204 321.737 191.356 321.639 191.478C320.94 192.354 320.588 193.099 320.816 193.326Z" fill="#A4B6C6"/>
<path d="M204.631 239.008C204.24 239.4 204.241 240.034 204.632 240.425C205.024 240.815 205.658 240.815 206.048 240.423C206.439 240.032 206.439 239.398 206.047 239.007C205.656 238.616 205.022 238.617 204.631 239.008Z" fill="#A4B6C6"/>
<path d="M294.028 259.93C293.637 260.321 293.638 260.955 294.029 261.346C294.421 261.737 295.055 261.736 295.445 261.345C295.836 260.953 295.836 260.319 295.444 259.929C295.053 259.538 294.419 259.538 294.028 259.93Z" fill="#A4B6C6"/>
<path d="M313.446 255.586C312.799 256.235 312.8 257.286 313.448 257.933C314.097 258.581 315.148 258.58 315.795 257.931C316.443 257.282 316.442 256.232 315.793 255.584C315.145 254.936 314.094 254.937 313.446 255.586Z" fill="#A4B6C6"/>
<path d="M300.455 185.771C299.808 186.419 299.809 187.47 300.457 188.118C301.106 188.765 302.157 188.764 302.804 188.116C303.452 187.467 303.451 186.416 302.802 185.769C302.154 185.121 301.103 185.122 300.455 185.771Z" fill="#A4B6C6"/>
<path d="M212.715 221.328C212.068 221.976 212.069 223.027 212.717 223.675C213.366 224.322 214.417 224.322 215.065 223.673C215.712 223.024 215.711 221.973 215.062 221.326C214.414 220.678 213.363 220.679 212.715 221.328Z" fill="#A4B6C6"/>
</g>
</g>
<defs>
<filter id="filter0_b_3_5" x="-39.8125" y="-39.6252" width="496.812" height="496.812" filterUnits="userSpaceOnUse" color-interpolation-filters="sRGB">
<feFlood flood-opacity="0" result="BackgroundImageFix"/>
<feGaussianBlur in="BackgroundImageFix" stdDeviation="20"/>
<feComposite in2="SourceAlpha" operator="in" result="effect1_backgroundBlur_3_5"/>
<feBlend mode="normal" in="SourceGraphic" in2="effect1_backgroundBlur_3_5" result="shape"/>
</filter>
<filter id="filter1_d_3_5" x="123.618" y="147.493" width="81.8261" height="81.7837" filterUnits="userSpaceOnUse" color-interpolation-filters="sRGB">
<feFlood flood-opacity="0" result="BackgroundImageFix"/>
<feColorMatrix in="SourceAlpha" type="matrix" values="0 0 0 0 0 0 0 0 0 0 0 0 0 0 0 0 0 0 127 0" result="hardAlpha"/>
<feOffset dy="3.74062"/>
<feGaussianBlur stdDeviation="5.61094"/>
<feComposite in2="hardAlpha" operator="out"/>
<feColorMatrix type="matrix" values="0 0 0 0 0 0 0 0 0 0 0 0 0 0 0 0 0 0 0.15 0"/>
<feBlend mode="normal" in2="BackgroundImageFix" result="effect1_dropShadow_3_5"/>
<feBlend mode="normal" in="SourceGraphic" in2="effect1_dropShadow_3_5" result="shape"/>
</filter>
<clipPath id="clip0_3_5">
<rect width="374.062" height="233.789" fill="white" transform="translate(21.4518 92.0844)"/>
</clipPath>
<clipPath id="clip1_3_5">
<rect width="315.438" height="194.61" fill="white" transform="translate(52.3123 131.361)"/>
</clipPath>
</defs>
</svg>
